<svg width="100" height="100" viewBox="0 0 100 100" fill="none" xmlns="http://www.w3.org/2000/svg">
<g id="bootstrap4" clip-path="url(#clip0_230_3832)">
<path id="Vector" d="M0 87.1C0 94.2 5.8 100 12.9 100H87.1C94.2 100 100 94.2 100 87.1V12.9C100 5.8 94.2 0 87.1 0H12.9C5.8 0 0 5.8 0 12.9V87.1Z" fill="#757575"/>
<path id="Vector_2" d="M41.5002 44.2002V30.1002H54.0002C55.2002 30.1002 56.3002 30.2002 57.4002 30.4002C58.5002 30.6002 59.5002 31.0002 60.3002 31.5002C61.1002 32.0002 61.8002 32.7002 62.3002 33.6002C62.8002 34.5002 63.1002 35.7002 63.1002 37.1002C63.1002 39.6002 62.3002 41.5002 60.8002 42.6002C59.3002 43.7002 57.3002 44.3002 54.9002 44.3002H41.5002V44.2002ZM28.2002 19.7002V80.2002H57.5002C60.2002 80.2002 62.9002 79.9002 65.4002 79.2002C68.0002 78.5002 70.3002 77.5002 72.3002 76.1002C74.3002 74.7002 75.9002 72.9002 77.1002 70.6002C78.3002 68.4002 78.9002 65.7002 78.9002 62.7002C78.9002 58.9002 78.0002 55.7002 76.1002 53.0002C74.3002 50.3002 71.5002 48.4002 67.7002 47.4002C70.4002 46.1002 72.5002 44.4002 73.8002 42.4002C75.2002 40.4002 75.9002 37.8002 75.9002 34.8002C75.9002 32.0002 75.4002 29.6002 74.5002 27.7002C73.6002 25.8002 72.3002 24.2002 70.6002 23.1002C68.9002 21.9002 66.9002 21.1002 64.5002 20.6002C62.1002 20.1002 59.5002 19.8002 56.6002 19.8002H28.2002V19.7002ZM41.5002 69.9002V53.3002H56.0002C58.9002 53.3002 61.2002 54.0002 63.0002 55.3002C64.8002 56.6002 65.6002 58.8002 65.6002 62.0002C65.6002 63.6002 65.3002 64.9002 64.8002 65.9002C64.3002 66.9002 63.5002 67.7002 62.6002 68.3002C61.7002 68.9002 60.6002 69.3002 59.5002 69.6002C58.3002 69.9002 57.1002 70.0002 55.8002 70.0002H41.5002V69.9002Z" fill="#C5C5C5"/>
</g>
<defs>
<clipPath id="clip0_230_3832">
<rect width="100" height="100" fill="white"/>
</clipPath>
</defs>
</svg>
