<svg width="100" height="100" viewBox="0 0 100 100" fill="none" xmlns="http://www.w3.org/2000/svg">
<g id="css3">
<path id="Vector" d="M94.2 0L86.2 90L50 100L14 90L6 0H94.2Z" fill="#525252"/>
<path id="Vector_2" d="M79.3002 84.2999L86.2002 7.3999H50.2002V92.3999L79.3002 84.2999Z" fill="#626262"/>
<path id="Vector_3" d="M24.3999 40.7002L25.3999 51.7002H50.0999V40.7002H24.3999Z" fill="#EBEBEB"/>
<path id="Vector_4" d="M50.0999 18.3999H22.3999L23.3999 29.3999H50.0999V18.3999Z" fill="#EBEBEB"/>
<path id="Vector_5" d="M50.0999 80.8998V69.3998L37.7999 66.0998L36.9999 57.2998H30.9999H25.8999L27.3999 74.5998L50.0999 80.8998Z" fill="#EBEBEB"/>
<path id="Vector_6" d="M63.6 51.7998L62.3 66.0998L50 69.3998V80.8998L72.6 74.5998L72.8 72.6998L75.4 43.5998L75.7 40.5998L77.7 18.2998H50V29.2998H65.6L64.6 40.5998H50V51.5998H63.6V51.7998Z" fill="white"/>
</g>
</svg>
