<svg width="100" height="100" viewBox="0 0 100 100" fill="none" xmlns="http://www.w3.org/2000/svg">
<g id="docker" clip-path="url(#clip0_230_3842)">
<path id="Vector" d="M99 41.0999C98.7 40.8999 96.2 38.9999 90.9 38.9999C89.5 38.9999 88.1 39.0999 86.7 39.3999C85.7 32.2999 79.8 28.8999 79.5 28.6999L78.1 27.8999L77.2 29.2999C76 31.0999 75.2 33.0999 74.7 35.2999C73.7 39.2999 74.3 43.0999 76.4 46.3999C73.9 47.7999 69.9 48.0999 69.1 48.1999H3.09999C1.39999 47.9999 -8.33534e-06 49.3999 -8.33534e-06 51.0999C-0.100008 56.7999 0.899992 62.5999 2.89999 67.9999C5.19999 73.9999 8.49999 78.2999 12.9 80.9999C17.8 83.9999 25.8 85.6999 34.9 85.6999C39 85.6999 43.1 85.2999 47.1 84.5999C52.7 83.5999 58.1 81.5999 63 78.7999C67.1 76.3999 70.8 73.3999 73.9 69.8999C79.1 63.9999 82.2 57.3999 84.5 51.5999H85.4C91.1 51.5999 94.6 49.2999 96.6 47.3999C97.9 46.1999 98.9 44.6999 99.5 42.9999L99.9 41.7999L99 41.0999Z" fill="#7D7D7D"/>
<path id="Vector_2" d="M9.1999 46H17.9999C18.3999 46 18.7999 45.7 18.7999 45.2V37.3C18.7999 36.9 18.4999 36.5 17.9999 36.5H9.1999C8.7999 36.5 8.3999 36.8 8.3999 37.3V45.2C8.4999 45.7 8.7999 46 9.1999 46Z" fill="#7D7D7D"/>
<path id="Vector_3" d="M21.4001 46H30.2001C30.6001 46 31.0001 45.7 31.0001 45.2V37.3C31.0001 36.9 30.7001 36.5 30.2001 36.5H21.4001C21.0001 36.5 20.6001 36.8 20.6001 37.3V45.2C20.6001 45.7 21.0001 46 21.4001 46Z" fill="#7D7D7D"/>
<path id="Vector_4" d="M33.6999 46H42.4999C42.8999 46 43.2999 45.7 43.2999 45.2V37.3C43.2999 36.9 42.9999 36.5 42.4999 36.5H33.6999C33.2999 36.5 32.8999 36.8 32.8999 37.3V45.2C32.9999 45.7 33.2999 46 33.6999 46Z" fill="#7D7D7D"/>
<path id="Vector_5" d="M46 46H54.7999C55.1999 46 55.5999 45.7 55.5999 45.2V37.3C55.5999 36.9 55.2999 36.5 54.7999 36.5H46C45.6 36.5 45.2 36.8 45.2 37.3V45.2C45.2 45.7 45.5 46 46 46Z" fill="#7D7D7D"/>
<path id="Vector_6" d="M21.4001 34.7H30.2001C30.6001 34.7 31.0001 34.4 31.0001 33.9V26C31.0001 25.6 30.7001 25.2 30.2001 25.2H21.4001C21.0001 25.2 20.6001 25.5 20.6001 26V33.9C20.6001 34.4 21.0001 34.7 21.4001 34.7Z" fill="#7D7D7D"/>
<path id="Vector_7" d="M33.6999 34.7H42.4999C42.8999 34.7 43.2999 34.4 43.2999 33.9V26C43.2999 25.6 42.9999 25.2 42.4999 25.2H33.6999C33.2999 25.2 32.8999 25.5 32.8999 26V33.9C32.9999 34.4 33.2999 34.7 33.6999 34.7Z" fill="#7D7D7D"/>
<path id="Vector_8" d="M46 34.7H54.7999C55.1999 34.7 55.5999 34.4 55.5999 33.9V26C55.5999 25.6 55.2999 25.2 54.7999 25.2H46C45.6 25.2 45.2 25.5 45.2 26V33.9C45.2 34.4 45.5 34.7 46 34.7Z" fill="#7D7D7D"/>
<path id="Vector_9" d="M46 23.3999H54.7999C55.1999 23.3999 55.5999 23.0999 55.5999 22.5999V14.6999C55.5999 14.2999 55.2999 13.8999 54.7999 13.8999H46C45.6 13.8999 45.2 14.1999 45.2 14.6999V22.5999C45.2 23.0999 45.5 23.3999 46 23.3999Z" fill="#7D7D7D"/>
<path id="Vector_10" d="M58.3 46H67.1C67.5 46 67.9 45.7 67.9 45.2V37.3C67.9 36.9 67.6 36.5 67.1 36.5H58.3C57.9 36.5 57.5 36.8 57.5 37.3V45.2C57.5 45.7 57.8 46 58.3 46Z" fill="#7D7D7D"/>
</g>
<defs>
<clipPath id="clip0_230_3842">
<rect width="100" height="100" fill="white"/>
</clipPath>
</defs>
</svg>
