<svg width="100" height="100" viewBox="0 0 100 100" fill="none" xmlns="http://www.w3.org/2000/svg">
<g id="git" clip-path="url(#clip0_230_3859)">
<path id="Vector" d="M98.0999 45.4999L54.4999 1.8999C51.9999 -0.600098 47.8999 -0.600098 45.3999 1.8999L36.2999 10.9999L47.7999 22.4999C50.4999 21.5999 53.4999 22.1999 55.6999 24.2999C57.7999 26.3999 58.3999 29.4999 57.4999 32.1999L68.5999 43.2999C71.2999 42.3999 74.3999 42.9999 76.4999 45.0999C79.4999 48.0999 79.4999 52.8999 76.4999 55.8999C73.4999 58.8999 68.6999 58.8999 65.6999 55.8999C63.3999 53.5999 62.8999 50.2999 63.9999 47.5999L53.5999 37.2999V64.4999C54.2999 64.8999 54.9999 65.3999 55.5999 65.8999C58.5999 68.8999 58.5999 73.6999 55.5999 76.6999C52.5999 79.6999 47.7999 79.6999 44.7999 76.6999C41.7999 73.6999 41.7999 68.8999 44.7999 65.8999C45.4999 65.1999 46.3999 64.5999 47.2999 64.1999V36.7999C46.3999 36.3999 45.4999 35.7999 44.7999 35.0999C42.4999 32.7999 41.9999 29.4999 43.0999 26.6999L31.7999 15.3999L1.8999 45.2999C-0.600098 47.7999 -0.600098 51.8999 1.8999 54.3999L45.5999 98.0999C48.0999 100.6 52.1999 100.6 54.6999 98.0999L98.1999 54.5999C100.6 52.0999 100.6 48.0999 98.0999 45.4999Z" fill="#757575"/>
</g>
<defs>
<clipPath id="clip0_230_3859">
<rect width="100" height="100" fill="white"/>
</clipPath>
</defs>
</svg>
