<svg width="100" height="100" viewBox="0 0 100 100" fill="none" xmlns="http://www.w3.org/2000/svg">
<g id="jest">
<path id="Vector" d="M89.8999 49.1998C89.8999 44.0998 85.6999 39.8998 80.5999 39.8998C80.2999 39.8998 79.8999 39.8998 79.5999 39.9998L92.3999 2.2998H37.9999L50.7999 39.9998C50.5999 39.9998 50.3999 39.9998 50.1999 39.9998C45.0999 39.9998 40.8999 44.1998 40.8999 49.2998C40.8999 53.4998 43.5999 56.9998 47.3999 58.1998C45.3999 61.5998 42.8999 64.6998 40.0999 67.3998C36.1999 70.9998 31.7999 73.7998 27.0999 75.4998C21.3999 72.5998 18.6999 66.0998 21.1999 60.3998C21.4999 59.7998 21.7999 59.0998 21.9999 58.4998C26.0999 57.4998 29.1999 53.7998 29.1999 49.3998C29.1999 44.2998 24.9999 40.0998 19.8999 40.0998C14.7999 40.0998 10.5999 44.2998 10.5999 49.3998C10.5999 52.5998 12.1999 55.2998 14.5999 56.9998C12.1999 62.1998 8.79993 67.6998 7.69993 73.9998C6.39993 81.5998 7.69993 89.6998 14.2999 94.2998C29.6999 104.9 46.2999 87.6998 63.8999 83.3998C70.2999 81.7998 77.2999 82.0998 82.8999 78.7998C87.0999 76.3998 89.8999 72.2998 90.6999 67.7998C91.4999 63.2998 90.2999 58.7998 87.6999 55.1998C89.0999 53.4998 89.8999 51.3998 89.8999 49.1998Z" fill="#757575"/>
<path id="Vector_2" d="M88.4 67.4C87.7 71.3 85.2999 74.8 81.7 76.9C78.3999 78.8 74.3999 79.4 70.2 80C67.9 80.3 65.6 80.7 63.3 81.2C57.3 82.7 51.4 85.6 45.8 88.4C34.6 94 24.8 98.8 15.6 92.4C8.89996 87.7 9.19996 79.1 9.99996 74.4C10.7 70 12.7 66 14.6 62.1C14.9 61.4 15.2 60.8 15.6 60.1C16.6 60.5 17.6 60.7 18.6 60.9C16.7 67.3 19.7 74.2 26.1 77.5L27 77.9L27.9 77.6C33 75.8 37.6 72.9 41.7 69C44.4 66.5 46.7 63.7 48.6 60.7C49.2 60.8 49.8 60.8 50.3 60.8C56.2 60.8 61 56.4 61.8 50.7C64.2 50.6 66.7999 50.6 69.2 50.7C70 56.4 74.7999 60.8 80.7 60.8C83.2 60.8 85.4 60 87.3 58.7C88.5 61.4 89 64.4 88.4 67.4ZM19.8 42.3C23.7 42.3 26.8 45.5 26.8 49.3C26.8 50.7 26.4 52 25.7 53.1C24.5 54.9 22.5 56.2 20.3 56.3C20.1 56.3 20 56.3 19.8 56.3C18.9 56.3 18.1 56.1 17.3 55.9C15.8 55.3 14.5 54.2 13.6 52.8C13 51.7 12.7 50.5 12.7 49.3C12.8 45.4 15.9 42.3 19.8 42.3ZM43.2 49.2C43.2 45.7 45.8 42.7 49.2 42.2C49.5 42.1 49.9 42.1 50.2 42.1C52.5 42.1 54.5 43.2 55.8 44.8C56.1 45.2 56.4 45.7 56.6 46.1C57 47 57.3 48 57.3 49.1C57.3 49.7 57.2 50.2 57.1 50.7C56.4 53.6 54 55.8 51 56.1C50.8 56.1 50.5 56.1 50.3 56.1C48.9 56.1 47.6 55.7 46.5 55C44.5 53.9 43.2 51.7 43.2 49.2ZM72.6 40.9C71.1 42.4 70 44.2 69.4 46.3C66.7 46.2 64.1 46.2 61.4 46.3C60.8 44.1 59.6 42.1 57.9 40.7L65.2 26L72.6 40.9ZM41.2 4.5H89.2L77.9 38C77.4 38.1 76.9 38.3 76.5 38.4L65.2 15.6L54 38.3C53.5 38.1 53 38 52.5 37.9L41.2 4.5ZM87.6 49.2C87.6 49.9 87.5 50.6 87.3 51.2C86.8 52.7 85.9 54 84.6 54.9C83.4 55.7 82 56.2 80.6 56.2C77.4 56.2 74.6 54 73.8 51C73.6 50.4 73.6 49.8 73.6 49.2C73.6 48.2 73.7999 47.3 74.1 46.5C74.2999 46.1 74.5 45.7 74.8 45.3C76.1 43.4 78.2 42.2 80.6 42.2C80.7999 42.2 81 42.2 81.3 42.2C84.8 42.6 87.6 45.6 87.6 49.2ZM92.2 49.2C92.2 43.5 88.1 38.8 82.8 37.8L95.5 0H34.9L47.8 37.9C42.6 39.1 38.7 43.7 38.7 49.2C38.7 53.3 40.9 57 44.2 59C42.6 61.4 40.7 63.6 38.6 65.6C35.2 68.8 31.4 71.2 27.3 72.8C23.2 70.2 21.4 65.3 23.2 61.1L23.3 60.8L23.6 60.2C28.1 58.6 31.4 54.3 31.4 49.3C31.4 42.9 26.2 37.7 19.8 37.7C13.4 37.7 8.19996 42.9 8.19996 49.3C8.19996 52.5 9.49996 55.4 11.7 57.5C11.3 58.3 10.9 59.2 10.5 60C8.59996 64 6.29996 68.5 5.49996 73.6C3.79996 83.6 6.49996 91.6 13 96.1C17 98.8 21 99.9 25 99.9C32.6 99.9 40.3 96.1 47.9 92.3C53.3 89.6 58.9 86.8 64.5 85.5C66.6 85 68.7 84.7 70.9 84.4C75.4 83.8 80 83.1 84 80.7C88.7 78 92 73.4 92.9 68.1C93.7 63.6 92.7 59 90.4 55.2C91.6 53.5 92.2 51.4 92.2 49.2Z" fill="#C5C5C5"/>
</g>
</svg>
