<svg width="100" height="100" viewBox="0 0 100 100" fill="none" xmlns="http://www.w3.org/2000/svg">
<g id="jira" clip-path="url(#clip0_230_3872)">
<path id="Vector" d="M95.8002 0H47.7002C47.7002 5.8 50.0002 11.3 54.1002 15.4C58.2002 19.5 63.7002 21.8 69.5002 21.8H78.4002V30.4C78.3002 42.3 88.0002 52 100 52V4.2C100 1.9 98.1002 0 95.8002 0Z" fill="#757575"/>
<path id="Vector_2" d="M71.9998 24H23.7998C23.7998 36 33.4998 45.7 45.4998 45.7H54.3998V54.3C54.3998 66.3 64.0998 76 76.0998 76V28.2C76.1998 25.9 74.2998 24 71.9998 24Z" fill="url(#paint0_linear_230_3872)"/>
<path id="Vector_3" d="M48.2 48H0C0 60 9.7 69.7 21.7 69.7H30.6V78.3C30.6 90.3 40.3 100 52.3 100V52.2C52.3 49.8 50.5 48 48.2 48Z" fill="url(#paint1_linear_230_3872)"/>
</g>
<defs>
<linearGradient id="paint0_linear_230_3872" x1="74.9936" y1="23.935" x2="54.6338" y2="45.1796" gradientUnits="userSpaceOnUse">
<stop offset="0.18" stop-color="#474747"/>
<stop offset="1" stop-color="#757575"/>
</linearGradient>
<linearGradient id="paint1_linear_230_3872" x1="52.5255" y1="48.0533" x2="28.9742" y2="71.2246" gradientUnits="userSpaceOnUse">
<stop offset="0.18" stop-color="#474747"/>
<stop offset="1" stop-color="#757575"/>
</linearGradient>
<clipPath id="clip0_230_3872">
<rect width="100" height="100" fill="white"/>
</clipPath>
</defs>
</svg>
