<svg width="100" height="100" viewBox="0 0 100 100" fill="none" xmlns="http://www.w3.org/2000/svg">
<g id="miro" clip-path="url(#clip0_230_3884)">
<path id="Vector" d="M21.7 0H78.4C90.4 0 100.1 9.7 100.1 21.7V78.4C100.1 90.4 90.4 100.1 78.4 100.1H21.7C9.7 100 0 90.3 0 78.3V21.7C0 9.7 9.7 0 21.7 0Z" fill="#757575"/>
<path id="Vector_2" d="M69.5001 12.5H58.5001L67.6001 28.6L47.5001 12.5H36.5001L46.6001 32.2L25.6001 12.5H14.6001L25.6001 37.5L14.6001 87.5H25.6001L46.6001 33.9L36.5001 87.5H47.5001L67.6001 30.4L58.5001 87.5H69.5001L89.6001 25L69.5001 12.5Z" fill="#C5C5C5"/>
</g>
<defs>
<clipPath id="clip0_230_3884">
<rect width="100" height="100" fill="white"/>
</clipPath>
</defs>
</svg>
