<svg width="100" height="100" viewBox="0 0 100 100" fill="none" xmlns="http://www.w3.org/2000/svg">
<g id="mysql" clip-path="url(#clip0_230_3887)">
<path id="Vector" d="M92.1001 77.1002C86.7001 77.0002 82.4001 77.5002 78.9001 79.0002C77.9001 79.4002 76.2001 79.4001 76.1001 80.7001C76.6001 81.3001 76.7001 82.2002 77.2001 82.9002C78.0001 84.3002 79.4001 86.1002 80.7001 87.1002C82.1001 88.2001 83.6001 89.3002 85.1001 90.3002C87.8001 92.0002 90.7001 92.9002 93.3001 94.6002C94.8001 95.6002 96.3001 96.8002 97.8001 97.8002C98.5001 98.4002 99.0001 99.2001 100 99.6002V99.4002C99.5001 98.8002 99.4001 97.9001 98.9001 97.2001C98.2001 96.5002 97.5001 95.9001 96.9001 95.2001C94.9001 92.5002 92.5001 90.2001 89.8001 88.2001C87.6001 86.7001 82.9001 84.6002 82.0001 82.1002L81.9001 82.0002C83.4001 81.9002 85.2001 81.3002 86.6001 80.9002C88.9001 80.3002 91.0001 80.4002 93.4001 79.8002C94.5001 79.5002 95.6001 79.2002 96.7001 78.8002V78.2001C95.5001 77.0002 94.6001 75.3001 93.3001 74.1002C89.8001 71.1002 86.0001 68.1002 82.1001 65.6002C80.0001 64.2001 77.3001 63.3002 75.0001 62.1002C74.2001 61.7001 72.8001 61.5002 72.3001 60.8002C71.1001 59.3002 70.4001 57.3002 69.5001 55.5002C67.5001 51.7002 65.6001 47.5002 63.9001 43.5002C62.7001 40.8002 61.9001 38.1002 60.4001 35.6002C53.4001 23.9002 45.8001 16.8002 34.1001 9.80015C31.6001 8.40015 28.6001 7.70015 25.4001 7.00015C23.7001 6.90015 22.0001 6.80015 20.3001 6.70015C19.2001 6.20015 18.1001 4.90015 17.2001 4.30015C13.3001 1.80015 3.30008 -3.59985 0.40008 3.50015C-1.39992 8.00015 3.10008 12.4002 4.70008 14.7002C5.90008 16.3002 7.40008 18.1002 8.20008 19.9002C8.70008 21.1002 8.80008 22.3002 9.30008 23.6002C10.4001 26.6002 11.4001 30.0002 12.8001 32.9002C13.5001 34.3002 14.4001 35.9002 15.3001 37.2002C15.8001 38.0002 16.8001 38.3002 17.0001 39.5002C16.0001 40.9002 16.0001 43.0002 15.4001 44.7002C13.0001 52.5002 13.9001 62.2002 17.4001 67.9002C18.5001 69.6002 21.1001 73.4002 24.5001 72.0002C27.6001 70.8002 26.9001 66.8002 27.8001 63.4002C28.0001 62.6002 27.9001 62.0002 28.3001 61.5002V61.6002C29.3001 63.5002 30.2001 65.4002 31.1001 67.3002C33.2001 70.7002 36.9001 74.2001 39.9001 76.6002C41.5001 77.8001 42.8001 80.0002 44.9001 80.7001V80.5002H44.8001C44.4001 79.9002 43.8001 79.6002 43.2001 79.1002C42.0001 77.9002 40.6001 76.3002 39.7001 75.0002C36.8001 71.1002 34.3001 66.9002 32.1001 62.4002C31.0001 60.3002 30.1001 57.9002 29.2001 55.8002C28.8001 55.0002 28.8001 53.7002 28.1001 53.3002C27.1001 54.8002 25.6001 56.1002 24.8001 58.0002C23.5001 61.0002 23.4001 64.6002 22.9001 68.4002C22.6001 68.5002 22.8001 68.4002 22.6001 68.5002C20.4001 67.9002 19.7001 65.7001 18.9001 63.7002C16.9001 58.8002 16.5001 50.9002 18.3001 45.3002C18.8001 43.8002 20.8001 39.3002 20.0001 37.9002C19.6001 36.6002 18.2001 35.8002 17.5001 34.8002C16.6001 33.5002 15.7001 31.8002 15.1001 30.4002C13.5001 26.5002 12.7001 22.3002 10.9001 18.4002C10.0001 16.5002 8.50008 14.7002 7.40008 13.0002C6.10008 11.1002 4.70008 9.80015 3.70008 7.60015C3.40008 6.80015 2.90008 5.60015 3.40008 4.80015C3.50008 4.20015 3.80008 4.00015 4.40008 3.90015C5.30008 3.10015 7.80008 4.10015 8.70008 4.50015C11.2001 5.50015 13.3001 6.50015 15.4001 8.00015C16.4001 8.70015 17.4001 10.0002 18.6001 10.3002H20.0001C22.2001 10.8002 24.6001 10.4002 26.7001 11.1002C30.3001 12.3002 33.6001 14.0002 36.5001 15.9002C45.4001 21.6002 52.8001 29.8002 57.7001 39.5002C58.5001 41.1002 58.9001 42.5002 59.6001 44.2002C61.0001 47.6002 62.8001 51.0002 64.2001 54.3002C65.6001 57.5002 67.0001 60.9002 69.0001 63.6002C70.0001 65.0002 74.1001 65.8001 75.9001 66.6002C77.3001 67.2001 79.4001 67.8002 80.6001 68.5002C82.9001 69.9002 85.2001 71.6002 87.4001 73.2001C88.5001 74.0002 91.9001 75.7001 92.1001 77.1002Z" fill="#CACACA"/>
<path id="Vector_2" d="M22.6999 17.1001C21.4999 17.1001 20.6999 17.2001 19.8999 17.4001V17.5001H19.9999C20.4999 18.6001 21.4999 19.4001 22.1999 20.3001C22.6999 21.4001 23.1999 22.5001 23.7999 23.6001C23.8999 23.5001 23.8999 23.5001 23.8999 23.5001C24.8999 22.8001 25.2999 21.7001 25.2999 20.0001C24.8999 19.5001 24.7999 19.0001 24.4999 18.6001C24.1999 18.0001 23.2999 17.6001 22.6999 17.1001Z" fill="#CACACA"/>
</g>
<defs>
<clipPath id="clip0_230_3887">
<rect width="100" height="100" fill="white"/>
</clipPath>
</defs>
</svg>
