<svg width="100" height="100" viewBox="0 0 100 100" fill="none" xmlns="http://www.w3.org/2000/svg">
<g id="php">
<path id="Vector" fill-rule="evenodd" clip-rule="evenodd" d="M50 75.6998C77.6 75.6998 100 64.3998 100 50.3998C100 36.3998 77.6 25.0998 50 25.0998C22.4 24.9998 0 36.2998 0 50.2998C0 64.2998 22.4 75.6998 50 75.6998Z" fill="#757575"/>
<path id="Vector_2" fill-rule="evenodd" clip-rule="evenodd" d="M60.1 58.5L62.6 45.7C63.2 42.8 62.7 40.7 61.2 39.3C59.8 38 57.3 37.3 53.8 37.3H49.5L50.7 31C50.7 30.9 50.7 30.8 50.7 30.6C50.7 30.5 50.6 30.4 50.5 30.3C50.4 30.2 50.3 30.1 50.2 30.1C50.1 30 50 30 49.9 30H44C43.6 30 43.3 30.3 43.2 30.7L40.6 44.3C40.4 42.8 39.8 41.5 38.8 40.4C37.1 38.4 34.3 37.4 30.6 37.4H19.1C18.7 37.4 18.4 37.7 18.3 38.1L13 65.5C13 65.7 13 66 13.2 66.2C13.4 66.4 13.6 66.5 13.8 66.5H19.8C20.2 66.5 20.5 66.2 20.6 65.8L21.9 59.2H26.3C28.6 59.2 30.6 58.9 32.1 58.4C33.7 57.9 35.1 57 36.4 55.8C37.4 54.9 38.3 53.8 38.9 52.7L37.8 58.2C37.8 58.4 37.8 58.7 38 58.9C38.2 59.1 38.4 59.2 38.6 59.2H44.5C44.9 59.2 45.2 58.9 45.3 58.5L48.2 43.4H52.3C54 43.4 54.5 43.7 54.7 43.9C54.8 44 55.1 44.5 54.8 46L52.4 58.1C52.4 58.2 52.4 58.3 52.4 58.5C52.4 58.6 52.5 58.7 52.6 58.8C52.7 58.9 52.8 59 52.9 59C53 59.1 53.1 59.1 53.2 59.1H59.2C59.4 59.1 59.6 59 59.7 58.9C60 58.9 60.1 58.7 60.1 58.5ZM32.6 48C32.2 49.9 31.5 51.3 30.5 52.1C29.5 52.9 27.8 53.3 25.6 53.3H23L24.9 43.4H28.3C30.8 43.4 31.8 43.9 32.2 44.4C32.9 45 33 46.2 32.6 48ZM85.1 40.4C83.4 38.4 80.6 37.4 76.9 37.4H65.4C65 37.4 64.7 37.7 64.6 38.1L59.3 65.5C59.3 65.7 59.3 66 59.5 66.2C59.7 66.4 59.9 66.5 60.1 66.5H66.1C66.5 66.5 66.8 66.2 66.9 65.8L68.2 59.2H72.6C74.9 59.2 76.9 58.9 78.4 58.4C80 57.9 81.4 57 82.7 55.8C83.8 54.8 84.6 53.7 85.3 52.6C86 51.4 86.4 50.1 86.7 48.7C87.4 45.2 86.9 42.4 85.1 40.4ZM79.3 48C78.9 49.9 78.2 51.3 77.2 52.1C76.2 52.9 74.5 53.3 72.3 53.3H69.7L71.6 43.4H75C77.5 43.4 78.5 43.9 78.9 44.4C79.5 45 79.6 46.2 79.3 48Z" fill="white"/>
<path id="Vector_3" fill-rule="evenodd" clip-rule="evenodd" d="M28.2001 42.5999C30.5001 42.5999 32.0001 42.9999 32.7001 43.8999C33.5001 44.6999 33.6001 46.1999 33.2001 48.1999C32.8001 50.2999 32.0001 51.7999 30.8001 52.6999C29.6001 53.5999 27.8001 54.0999 25.4001 54.0999H21.8001L24.0001 42.5999H28.2001ZM13.6001 65.6999H19.6001L21.0001 58.3999H26.1001C28.4001 58.3999 30.2001 58.1999 31.7001 57.6999C33.2001 57.1999 34.5001 56.3999 35.7001 55.2999C36.7001 54.3999 37.5001 53.3999 38.1001 52.2999C38.7001 51.1999 39.2001 49.9999 39.4001 48.5999C40.0001 45.2999 39.6001 42.7999 38.0001 40.9999C36.4001 39.1999 33.9001 38.2999 30.4001 38.2999H19.0001L13.6001 65.6999ZM43.8001 30.8999H49.7001L48.3001 38.1999H53.6001C56.9001 38.1999 59.2001 38.7999 60.5001 39.8999C61.8001 41.0999 62.1001 42.8999 61.6001 45.4999L59.1001 58.2999H53.1001L55.5001 46.1999C55.8001 44.7999 55.7001 43.8999 55.2001 43.3999C54.7001 42.8999 53.7001 42.5999 52.2001 42.5999H47.5001L44.4001 58.2999H38.5001L43.8001 30.8999ZM74.8001 42.5999C77.1001 42.5999 78.6001 42.9999 79.3001 43.8999C80.1001 44.6999 80.2001 46.1999 79.8001 48.1999C79.4001 50.2999 78.6001 51.7999 77.4001 52.6999C76.2001 53.5999 74.4001 54.0999 72.0001 54.0999H68.4001L70.6001 42.5999H74.8001ZM60.3001 65.6999H66.3001L67.7001 58.3999H72.8001C75.1001 58.3999 76.9001 58.1999 78.4001 57.6999C79.9001 57.1999 81.2001 56.3999 82.4001 55.2999C83.4001 54.3999 84.2001 53.3999 84.8001 52.2999C85.4001 51.1999 85.9001 49.9999 86.1001 48.5999C86.7001 45.2999 86.3001 42.7999 84.7001 40.9999C83.1001 39.1999 80.6001 38.2999 77.1001 38.2999H65.6001L60.3001 65.6999Z" fill="#C5C5C5"/>
</g>
</svg>
