<svg width="100" height="100" viewBox="0 0 100 100" fill="none" xmlns="http://www.w3.org/2000/svg">
<g id="postman" clip-path="url(#clip0_230_3906)">
<path id="Vector" d="M89.6 19.4C83.6 11.6 75.3 5.69999 66 2.59999C56.6 -0.500014 46.5 -0.800014 37 1.69999C27.5 4.29999 18.9 9.69999 12.4 17.1C5.79997 24.6 1.69997 33.8 0.399967 43.6C-0.900033 53.4 0.799967 63.4 5.19997 72.2C9.59997 81.1 16.5 88.4 25.1 93.3C33.7 98.2 43.5 100.5 53.4 99.8C63.3 99.1 72.7 95.5 80.5 89.5C102.4 72.7 106.4 41.3 89.6 19.4Z" fill="#757575"/>
<path id="Vector_2" d="M66.9001 31.9L45.8 53.1L39.8 47C60.6 26.2 62.7001 28.1 66.9001 31.9Z" fill="#C5C5C5"/>
<path id="Vector_3" d="M45.8001 53.6999C45.6001 53.6999 45.4001 53.5999 45.3001 53.4999L39.3001 47.4999C39.2001 47.3999 39.1001 47.1999 39.1001 46.9999C39.1001 46.7999 39.2001 46.5999 39.3001 46.4999C59.7001 25.9999 62.5001 26.8999 67.4001 31.2999C67.5001 31.3999 67.5001 31.3999 67.6001 31.4999C67.6001 31.5999 67.7001 31.6999 67.7001 31.7999C67.7001 31.9999 67.7001 32.1999 67.5001 32.2999L46.3001 53.4999C46.2001 53.5999 46.0001 53.6999 45.8001 53.6999ZM40.9001 46.9999L45.8001 51.8999L65.8001 31.8999C65.1001 30.9999 64.1001 30.4999 63.0001 30.2999C61.9001 30.0999 60.8001 30.2999 59.9001 30.8999C56.2001 32.4999 50.4001 37.4999 40.9001 46.9999Z" fill="#757575"/>
<path id="Vector_4" d="M51.8 58.9998L46 53.0998L67.1 32.2998C72.8 37.7998 64.4 47.0998 51.8 58.9998Z" fill="#C5C5C5"/>
<path id="Vector_5" d="M51.7999 59.6998C51.5999 59.6998 51.3999 59.5998 51.2999 59.4998L45.4 53.7998C45.3 53.5998 45.3 53.2998 45.4 53.0998C45.3 52.8998 45.3 52.6998 45.4 52.5998L66.5 31.4998C66.6 31.3998 66.7999 31.2998 67 31.2998C67.2 31.2998 67.4 31.3998 67.5 31.4998C68.2 32.0998 68.6999 32.8998 69.0999 33.7998C69.4999 34.6998 69.5999 35.5998 69.5999 36.4998C69.5999 42.0998 63.1999 49.1998 52.2999 59.4998C52.1999 59.5998 51.9999 59.6998 51.7999 59.6998ZM47.2 53.0998L51.9 57.7998C60.2 49.8998 68.1999 41.7998 68.1999 36.2998C68.1999 35.0998 67.8999 33.9998 67.0999 33.0998L47.2 53.0998Z" fill="#757575"/>
<path id="Vector_6" d="M39.9999 47.1L44.1999 51.3C44.1999 51.3 44.1999 51.4 44.2999 51.4V51.5V51.6C44.2999 51.6 44.2999 51.7 44.1999 51.7L35.3999 53.6C35.1999 53.6 34.9999 53.6 34.8999 53.5C34.6999 53.4 34.5999 53.3 34.4999 53.1C34.3999 52.9 34.3999 52.8 34.3999 52.6C34.3999 52.4 34.4999 52.3 34.5999 52.1L39.6999 47C39.6999 47 39.8999 47 39.9999 47.1Z" fill="#C5C5C5"/>
<path id="Vector_7" d="M35.2001 54.3998C34.9001 54.3998 34.6001 54.2998 34.4001 54.1998C34.2001 54.0998 34.0001 53.8998 33.8001 53.5998C33.6001 53.2998 33.6001 52.9998 33.6001 52.5998C33.7001 52.2998 33.8001 51.9998 34.1001 51.6998L39.2001 46.5998C39.4001 46.3998 39.6001 46.2998 39.9001 46.2998C40.1001 46.2998 40.4001 46.3998 40.6001 46.5998L44.8001 50.7998C45.0001 50.9998 45.1001 51.3998 45.0001 51.6998C44.9001 51.9998 44.6001 52.2998 44.3001 52.3998L35.5001 54.2998L35.2001 54.3998ZM39.8001 47.9998L35.1001 52.6998L42.9001 50.9998L39.8001 47.9998Z" fill="#757575"/>
<path id="Vector_8" d="M78.0999 20.0998C75.0999 17.1998 70.2999 17.0998 67.1999 19.7998C63.9999 22.4998 63.4999 27.2998 65.9999 30.5998C68.4999 33.9998 73.0999 34.8998 76.6999 32.7998L70.9999 27.0998L78.0999 20.0998Z" fill="#C5C5C5"/>
<path id="Vector_9" d="M72.4001 34.8001C70.7001 34.8001 69.0001 34.2001 67.5001 33.3001C66.1001 32.3001 65.0001 31.0001 64.3001 29.3001C63.6001 27.7001 63.5001 25.9001 63.8001 24.2001C64.1001 22.5001 65.0001 20.9001 66.2001 19.7001C67.9001 18.1001 70.1001 17.1001 72.4001 17.1001C74.7001 17.1001 77.0001 18.0001 78.6001 19.7001C78.8001 19.8001 78.8001 20.0001 78.8001 20.2001C78.8001 20.3001 78.8001 20.4001 78.7001 20.5001C78.7001 20.6001 78.6001 20.7001 78.5001 20.7001L72.0001 27.2001L77.1001 32.2001C77.2001 32.3001 77.2001 32.4001 77.3001 32.5001C77.3001 32.6001 77.3001 32.7001 77.3001 32.8001C77.3001 32.9001 77.3001 33.0001 77.2001 33.1001C77.1001 33.2001 77.1001 33.3001 77.0001 33.3001C75.6001 34.3001 74.1001 34.8001 72.4001 34.8001ZM72.4001 18.6001C69.4001 18.6001 66.8001 20.4001 65.7001 23.1001C64.6001 25.8001 65.2001 29.0001 67.3001 31.1001C68.3001 32.1001 69.7001 32.8001 71.1001 33.1001C72.5001 33.4001 74.0001 33.2001 75.4001 32.6001L70.5001 27.7001C70.4001 27.6001 70.4001 27.6001 70.3001 27.5001C70.3001 27.4001 70.2001 27.3001 70.2001 27.2001C70.2001 27.1001 70.2001 27.0001 70.3001 26.9001C70.3001 26.8001 70.4001 26.7001 70.5001 26.7001L77.0001 20.2001C75.7001 19.2001 74.1001 18.7001 72.4001 18.6001Z" fill="#757575"/>
<path id="Vector_10" d="M78.2001 20.2998L71.1001 27.3998L76.8001 33.0998C77.4001 32.7998 77.9001 32.3998 78.4001 31.8998C79.9001 30.2998 80.7001 28.1998 80.7001 26.0998C80.6001 23.8998 79.7001 21.7998 78.2001 20.2998Z" fill="#C5C5C5"/>
<path id="Vector_11" d="M76.6001 33.5999C76.5001 33.5999 76.4001 33.5999 76.3001 33.5999C76.2001 33.5999 76.1001 33.4999 76.1001 33.3999L70.4001 27.6999C70.3001 27.5999 70.3001 27.5999 70.2001 27.4999C70.2001 27.3999 70.1001 27.2999 70.1001 27.1999C70.1001 27.0999 70.1001 26.9999 70.2001 26.8999C70.2001 26.7999 70.3001 26.6999 70.4001 26.6999L77.5001 19.6999C77.6001 19.5999 77.7001 19.4999 77.8001 19.4999C77.9001 19.3999 78.0001 19.3999 78.2001 19.3999C78.3001 19.3999 78.4001 19.3999 78.6001 19.4999C78.7001 19.5999 78.8001 19.5999 78.9001 19.6999C79.7001 20.4999 80.4001 21.4999 80.8001 22.5999C81.3001 23.6999 81.5001 24.7999 81.5001 25.9999C81.5001 27.1999 81.3001 28.2999 80.8001 29.3999C80.3001 30.4999 79.7001 31.3999 78.9001 32.2999C78.4001 32.7999 77.8001 33.2999 77.2001 33.5999C77.0001 33.6999 76.8001 33.6999 76.6001 33.5999ZM72.0001 27.1999L76.7001 31.8999C77.0001 31.6999 77.3001 31.3999 77.6001 31.0999C79.0001 29.6999 79.8001 27.7999 79.8001 25.8999C79.8001 24.1999 79.2001 22.4999 78.0001 21.1999L72.0001 27.1999Z" fill="#757575"/>
<path id="Vector_12" d="M67.6999 32.6999C67.0999 32.1999 66.3999 31.8999 65.5999 31.8999C64.7999 31.8999 64.1 32.1999 63.5 32.6999L44.7 51.5999L47.7999 54.7999L67.8 37.2999C68.1 36.9999 68.2999 36.6999 68.5 36.2999C68.7 35.8999 68.6999 35.4999 68.6999 35.0999C68.6999 34.6999 68.6 34.2999 68.4 33.8999C68.3 33.3999 67.9999 32.9999 67.6999 32.6999Z" fill="#C5C5C5"/>
<path id="Vector_13" d="M47.7001 55.4999C47.5001 55.4999 47.3001 55.3999 47.2001 55.2999L44 52.0999C43.9 51.9999 43.8 51.7999 43.8 51.5999C43.8 51.3999 43.9 51.1999 44 51.0999L62.9001 32.2999C63.4001 31.7999 64.1001 31.3999 64.9001 31.1999C65.7001 31.0999 66.4 31.0999 67.1 31.3999C67.8 31.6999 68.4001 32.1999 68.8001 32.8999C69.2001 33.4999 69.4001 34.2999 69.4001 35.0999C69.4001 35.5999 69.3 36.0999 69 36.5999C68.8 37.0999 68.5 37.4999 68.1 37.7999L48.1 55.2999C48 55.4999 47.8001 55.4999 47.7001 55.4999ZM45.4001 51.5999L47.5 53.6999L67.1 36.6999C67.6 36.2999 67.9001 35.6999 67.9001 34.9999C67.9001 34.3999 67.7 33.6999 67.2 33.2999C66.8 32.8999 66.2 32.5999 65.6 32.5999C65 32.5999 64.4 32.7999 64 33.2999L45.4001 51.5999Z" fill="#757575"/>
<path id="Vector_14" d="M30.1 73.0001C30 73.1001 30 73.2001 30 73.3001C30 73.4001 30 73.5001 30.1 73.5001L30.9 77.1001C30.9 77.3001 30.9 77.5001 30.8 77.7001C30.7 77.9001 30.6 78.1001 30.4 78.2001C30.2 78.3001 30 78.4001 29.8 78.3001C29.6 78.3001 29.4 78.2001 29.2 78.0001L23.5 72.5001L41.3 54.6001H47.5L51.7 58.8001C45.1 64.5001 37.9 69.3001 30.1 73.0001Z" fill="#C5C5C5"/>
<path id="Vector_15" d="M29.7 79.1002C29.2 79.1002 28.8 78.9002 28.5 78.6002L23 73.1002C22.9 73.0002 22.8999 73.0002 22.7999 72.9002C22.7999 72.8002 22.7 72.7002 22.7 72.6002C22.7 72.5002 22.6999 72.4002 22.7999 72.3002C22.7999 72.2002 22.9 72.1002 23 72.1002L40.9 54.1002C41 54.0002 41.0999 53.9002 41.2999 53.9002H47.5C47.7 53.8002 47.7999 53.8002 48 53.9002L52.2 58.1002C52.3 58.2002 52.3 58.3002 52.4 58.4002C52.4 58.5002 52.4 58.6002 52.4 58.7002C52.4 58.8002 52.4 58.9002 52.2999 59.0002C52.2999 59.1002 52.1999 59.2002 52.0999 59.2002L51.7999 59.5002C45.2999 64.9002 38.0999 69.5002 30.4 73.2002L31.2 76.6002C31.3 76.9002 31.3 77.1002 31.2 77.4002C31.1 77.7002 31 77.9002 30.9 78.1002C30.7 78.3002 30.4999 78.5002 30.2999 78.6002C30.0999 78.7002 29.8 78.8002 29.5 78.8002L29.7 79.1002ZM24.6 72.6002L29.5 77.6002C29.5 77.6002 29.6 77.7002 29.7 77.7002C29.8 77.7002 29.8 77.7002 29.9 77.6002V77.5002C29.9 77.4002 29.9 77.4002 29.9 77.4002L29 73.6002C28.9 73.3002 29 73.1002 29.1 72.8002C29.2 72.6002 29.4 72.4002 29.7 72.2002C37.2 68.6002 44.2 64.1002 50.5 58.8002L47.0999 55.4002H41.5L24.6 72.6002Z" fill="#757575"/>
<path id="Vector_16" d="M19.2001 76.9002L23.4 72.7002L29.8 79.1002L19.6 78.4002C19.4 78.4002 19.3 78.3002 19.1 78.2002C19 78.1002 18.9 77.9002 18.8 77.8002C18.8 77.6002 18.8 77.4002 18.8 77.3002C18.9 77.1002 19.1001 77.0002 19.2001 76.9002Z" fill="#C5C5C5"/>
<path id="Vector_17" d="M29.9 79.8001L19.7 79.1001C19.1 79.0001 18.6 78.6001 18.4 78.1001C18.2 77.5001 18.3 76.9001 18.7 76.5001L22.9 72.3001C23 72.2001 23.2 72.1001 23.4 72.1001C23.6 72.1001 23.8 72.2001 23.9 72.3001L30.3 78.7001C30.4 78.8001 30.4 79.0001 30.4 79.1001C30.4 79.2001 30.4 79.4001 30.3 79.5001C30.2 79.6001 30.1 79.7001 29.9 79.8001ZM19.7 77.4001L28 77.9001L23.4 73.6001L19.7 77.4001Z" fill="#757575"/>
<path id="Vector_18" d="M48.0001 55.2002L39.6001 56.5002L44.5001 51.7002L48.0001 55.2002Z" fill="#C5C5C5"/>
<path id="Vector_19" d="M39.6 57.3C39.5 57.3 39.3001 57.3 39.2001 57.2C39.1001 57.1 39.0001 57 38.9001 56.9C38.8001 56.8 38.8 56.6 38.8 56.5C38.8 56.4 38.8001 56.2 38.9001 56.1L43.7001 51.2C43.8001 51.1 44.0001 51 44.2001 51C44.4001 51 44.6001 51.1 44.7001 51.2L48.2001 54.7C48.3001 54.8 48.3 54.9 48.3 55.1C48.3 55.2 48.3001 55.4 48.2001 55.5C48.2001 55.6 48.1 55.8 48 55.9C48.1 55.9 48 56 47.8 56L39.5 57.3H39.6ZM44.5 52.7L41.8 55.4L46.5 54.7L44.5 52.7Z" fill="#757575"/>
<path id="Vector_20" d="M48 55.1998L42.0999 55.9998C41.8999 55.9998 41.7999 55.9998 41.5999 55.9998C41.4999 55.8998 41.2999 55.7998 41.2999 55.6998C41.1999 55.5998 41.2 55.3998 41.2 55.1998C41.2 54.9998 41.3 54.8998 41.4 54.7998L44.4 51.7998L48 55.1998Z" fill="#C5C5C5"/>
<path id="Vector_21" d="M41.9999 56.6998C41.6999 56.6998 41.4999 56.5998 41.1999 56.4998C40.9999 56.3998 40.7999 56.1998 40.5999 55.8998C40.3999 55.5998 40.3999 55.2998 40.3999 54.9998C40.3999 54.6998 40.5999 54.3998 40.7999 54.0998L43.7999 51.0998C43.8999 50.9998 44.0999 50.8998 44.2999 50.8998C44.4999 50.8998 44.6999 50.9998 44.7999 51.0998L48.2999 54.5998C48.3999 54.6998 48.4999 54.7998 48.4999 54.9998C48.4999 55.0998 48.4999 55.2998 48.4999 55.3998C48.4999 55.4998 48.3999 55.6998 48.1999 55.6998C48.0999 55.7998 47.8999 55.7998 47.7999 55.8998L41.9999 56.6998ZM41.9999 55.1998L46.3999 54.6998L44.3999 52.6998L41.9999 55.1998ZM78.1999 25.0998C78.0999 24.9998 77.9999 24.8998 77.8999 24.7998C77.7999 24.7998 77.5999 24.7998 77.4999 24.7998C77.3999 24.7998 77.3999 24.8998 77.2999 24.8998C77.2999 24.9998 77.1999 24.9998 77.1999 25.0998C77.1999 25.1998 77.1999 25.3998 77.1999 25.4998C77.4999 26.0998 77.3999 26.7998 76.9999 27.3998C76.8999 27.4998 76.8999 27.4998 76.8999 27.5998C76.8999 27.6998 76.8999 27.6998 76.8999 27.7998C76.8999 27.8998 76.9999 28.0998 77.0999 28.1998C77.1999 28.1998 77.2999 28.1998 77.3999 28.1998C77.4999 28.1998 77.5999 28.1998 77.6999 28.1998C77.7999 28.1998 77.8999 28.0998 77.8999 27.9998C78.1999 27.5998 78.4999 27.0998 78.4999 26.4998C78.5999 26.0998 78.4999 25.5998 78.1999 25.0998Z" fill="#757575"/>
</g>
<defs>
<clipPath id="clip0_230_3906">
<rect width="100" height="100" fill="white"/>
</clipPath>
</defs>
</svg>
