<svg width="100" height="100" viewBox="0 0 100 100" fill="none" xmlns="http://www.w3.org/2000/svg">
<g id="postgresql" clip-path="url(#clip0_230_3901)">
<path id="Vector" d="M98.5 59.9C97.9 58.1 96.4 56.9 94.4 56.6C93.5 56.5 92.4 56.5 91.1 56.8C88.9 57.3 87.3 57.4 86.1 57.5C90.6 49.9 94.2 41.3 96.3 33.1C99.7 19.9 97.9 13.9 95.8 11.2C90.2 4.00002 82 0.100023 72.2 2.31937e-05C66.9 -0.0999768 62.3 1.00002 59.9 1.70002C57.7 1.30002 55.2 1.10002 52.7 1.00002C47.9 1.00002 43.7 2.00002 40.1 4.20002C38.1 3.50002 34.9 2.60002 31.3 2.00002C22.6 0.600023 15.7 1.70002 10.6 5.30002C4.39999 9.70002 1.59999 17.3 2.09999 27.9C2.29999 31.3 4.09999 41.5 7.09999 51.3C8.79999 56.9 10.6 61.5 12.5 65.1C15.2 70.2 18 73.1 21.2 74.2C23 74.8 26.2 75.2 29.7 72.4C30.1 72.9 30.7 73.5 31.5 73.9C32.5 74.5 33.7 75 34.9 75.3C39.2 76.4 43.2 76.1 46.7 74.6C46.7 75.2 46.7 75.8 46.8 76.3C46.8 77.1 46.8 77.9 46.9 78.7C47.1 83.8 47.4 87.7 48.5 90.5C48.6 90.7 48.6 90.9 48.7 91.1C49.2 92.7 50.1 95.3 52.2 97.3C54.4 99.4 57.2 100.1 59.6 100.1C60.8 100.1 62 99.9 63.1 99.7C66.8 98.9 71 97.7 74.1 93.3C77 89.2 78.4 83 78.6 73.2C78.6 72.9 78.7 72.7 78.7 72.4L78.8 71.9L79.5 72H79.7C83.5 72.2 88.1 71.4 91 70C93 68.9 100.2 65.1 98.5 59.9Z" fill="black"/>
<path id="Vector_2" d="M91.9999 60.9002C80.6999 63.2002 79.9999 59.4002 79.9999 59.4002C91.8999 41.7002 96.8999 19.2002 92.5999 13.7002C80.8999 -1.2998 60.5999 5.8002 60.2999 6.0002H60.1999C57.9999 5.5002 55.4999 5.3002 52.6999 5.2002C47.5999 5.1002 43.6999 6.5002 40.7999 8.8002C40.7999 8.8002 4.69995 -6.0998 6.29995 27.6002C6.69995 34.8002 16.5999 81.9002 28.3999 67.6002C32.6999 62.4002 36.8999 58.0002 36.8999 58.0002C38.9999 59.4002 41.3999 60.1002 43.9999 59.8002L44.1999 59.6002C44.0999 60.2002 44.1999 60.9002 44.2999 61.6002C41.2999 65.0002 42.1999 65.6002 36.0999 66.9002C29.9999 68.2002 33.5999 70.4002 35.8999 71.0002C38.7999 71.7002 45.3999 72.7002 49.7999 66.5002L49.5999 67.2002C50.7999 68.2002 51.5999 73.4002 51.4999 78.2002C51.3999 83.0002 51.2999 86.3002 52.1999 88.8002C53.0999 91.4002 54.0999 97.1002 62.0999 95.4002C68.7999 94.0002 72.1999 90.2002 72.6999 84.0002C72.9999 79.6002 73.7999 80.2002 73.8999 76.3002L74.4999 74.4002C75.1999 68.4002 74.5999 66.5002 78.6999 67.4002L79.6999 67.5002C82.6999 67.6002 86.6999 67.0002 88.9999 65.9002C93.9999 63.8002 96.8999 59.9002 91.9999 60.9002Z" fill="#757575"/>
<path id="Vector_3" d="M42.8001 30.8C41.8001 30.7 40.9001 30.8 40.4001 31.1C40.1001 31.3 40.1001 31.5 40.0001 31.7C39.9001 32.1 40.2001 32.6 40.4001 32.8C40.9001 33.5 41.7001 33.9 42.4001 34C42.5001 34 42.6001 34 42.7001 34C43.9001 34 45.0001 33 45.1001 32.3C45.4001 31.6 44.1001 31 42.8001 30.8ZM76.4001 30.9C76.3001 30.2 75.1001 30 73.9001 30.2C72.7001 30.4 71.6001 30.9 71.7001 31.6C71.8001 32.1 72.8001 33.1 73.9001 33.1C74.0001 33.1 74.1001 33.1 74.2001 33.1C75.0001 33 75.5001 32.5 75.8001 32.2C76.3001 31.6 76.5001 31.2 76.4001 30.9Z" fill="#C5C5C5"/>
<path id="Vector_4" d="M95.7 60.5998C95.3 59.2998 93.9 58.8998 91.6 59.3998C84.8 60.7998 82.3 59.7998 81.5 59.1998C86.8 51.0998 91.2 41.2998 93.5 32.1998C94.6 27.8998 95.2 23.8998 95.3 20.5998C95.4 16.9998 94.7 14.3998 93.5 12.7998C88.5 6.1998 81 2.7998 72 2.6998C65.8 2.5998 60.6 4.1998 59.5 4.6998C57.4 4.1998 55 3.7998 52.5 3.7998C47.8 3.6998 43.8 4.7998 40.5 7.0998C39.1 6.5998 35.3 5.2998 30.7 4.4998C22.8 3.1998 16.5 4.1998 12 7.3998C6.79998 11.1998 4.29998 17.9998 4.79998 27.4998C4.99998 30.6998 6.79998 40.6998 9.69998 50.1998C13.5 62.6998 17.7 69.7998 22 71.2998C22.5 71.4998 23.1 71.5998 23.7 71.5998C25.3 71.5998 27.2 70.8998 29.3 68.3998C31.8 65.3998 34.3 62.4998 37 59.6998C38.7 60.5998 40.6 61.0998 42.5 61.1998C42.5 61.2998 42.5 61.2998 42.5 61.3998C42.2 61.7998 41.8 62.1998 41.5 62.5998C40.2 64.2998 39.9 64.6998 35.6 65.4998C34.4 65.7998 31.1 66.3998 31.1 68.6998C31 71.1998 34.9 72.1998 35.4 72.2998C36.9 72.6998 38.4 72.8998 39.8 72.8998C43.2 72.8998 46.3 71.7998 48.7 69.5998C48.6 78.4998 49 87.1998 50.1 89.8998C51 92.0998 53.1 97.3998 59.8 97.3998C60.8 97.3998 61.9 97.2998 63.1 96.9998C70.1 95.4998 73.2 92.3998 74.3 85.4998C74.9 81.7998 76 73.0998 76.5 68.3998C77.6 68.6998 79 68.8998 80.5 68.8998C83.6 68.8998 87.2 68.1998 89.5 67.1998C92 66.0998 96.6 63.1998 95.7 60.5998ZM79 28.8998C79 30.2998 78.8 31.4998 78.6 32.8998C78.4 34.2998 78.2 35.7998 78.1 37.4998C78 39.1998 78.3 40.9998 78.5 42.7998C78.9 46.2998 79.4 49.8998 77.7 53.4998C77.4 52.9998 77.2 52.4998 77 51.9998C76.8 51.4998 76.3 50.6998 75.7 49.5998C73.3 45.1998 67.6 34.9998 70.5 30.8998C71.3 29.4998 73.5 28.1998 79 28.8998ZM72.4 5.4998C80.5 5.6998 86.9 8.6998 91.4 14.4998C94.9 18.8998 91 39.1998 80 56.5998C79.9 56.4998 79.8 56.2998 79.7 56.1998L79.5 55.9998C82.4 51.2998 81.8 46.5998 81.3 42.3998C81.1 40.6998 80.9 39.0998 81 37.5998C81.1 35.9998 81.3 34.5998 81.5 33.2998C81.8 31.6998 82 29.9998 81.9 27.9998C82 27.7998 82 27.4998 81.9 27.1998C81.7 25.2998 79.5 19.4998 75.1 14.3998C72.7 11.5998 69.1 8.3998 64.3 6.1998C66.3 5.7998 69.2 5.3998 72.4 5.4998ZM27.1 66.5998C24.9 69.2998 23.3 68.7998 22.8 68.5998C19.5 67.4998 15.7 60.4998 12.3 49.3998C9.39998 39.7998 7.69998 30.0998 7.49998 27.3998C7.09998 18.7998 9.09998 12.7998 13.7 9.5998C21.1 4.3998 33.1 7.4998 38 9.0998C37.9 9.1998 37.9 9.1998 37.8 9.2998C29.8 17.3998 30 31.1998 30 31.9998C30 32.2998 30 32.7998 30.1 33.3998C30.2 35.6998 30.5 39.9998 29.8 44.8998C29.2 49.3998 30.6 53.8998 33.6 57.0998C33.9 57.3998 34.2 57.6998 34.6 57.9998C33.3 59.5998 30.3 62.7998 27.1 66.5998ZM35.7 55.1998C33.2 52.5998 32.1 48.9998 32.6 45.2998C33.3 40.0998 33.1 35.5998 32.9 33.1998C32.9 32.8998 32.9 32.5998 32.9 32.2998C34.1 31.2998 39.5 28.3998 43.3 29.2998C45.1 29.6998 46.1 30.8998 46.6 32.9998C48.9 43.6998 46.9 48.0998 45.3 51.6998C45 52.3998 44.7 53.0998 44.4 53.8998L44.2 54.4998C43.7 55.8998 43.2 57.1998 42.9 58.4998C40.2 58.3998 37.6 57.2998 35.7 55.1998ZM36.1 69.5998C35.3 69.3998 34.6 69.0998 34.2 68.7998C34.5 68.5998 35.1 68.3998 36.2 68.1998C41.3 67.1998 42 66.3998 43.7 64.2998C44.1 63.7998 44.5 63.1998 45.1 62.5998C46 61.5998 46.4 61.6998 47.2 62.0998C47.8 62.3998 48.4 63.0998 48.7 63.9998C48.8 64.3998 48.9 65.1998 48.5 65.7998C45 70.5998 39.8 70.5998 36.1 69.5998ZM62.5 94.2998C56.3 95.5998 54.1 92.4998 52.7 88.8998C51.8 86.5998 51.3 75.9998 51.6 64.3998C51.6 64.1998 51.6 64.0998 51.5 63.9998C51.5 63.6998 51.4 63.3998 51.3 63.1998C50.8 61.4998 49.6 60.0998 48.2 59.4998C47.6 59.2998 46.6 58.7998 45.4 59.1998C45.7 58.0998 46.1 56.8998 46.6 55.4998L46.8 54.8998C47 54.2998 47.3 53.5998 47.6 52.8998C49.3 49.1998 51.6 43.9998 49.1 32.4998C48.2 28.1998 45 25.9998 40.3 26.4998C37.5 26.7998 34.9 27.8998 33.6 28.5998C33.3 28.6998 33.1 28.8998 32.8 28.9998C33.2 24.5998 34.5 16.4998 39.6 11.2998C43 7.9998 47.3 6.3998 52.5 6.4998C62.8 6.6998 69.4 11.9998 73.1 16.3998C76.3 20.1998 78 23.9998 78.7 26.0998C73.5 25.5998 69.9 26.5998 68.2 29.1998C64.3 34.7998 70.3 45.6998 73.2 50.8998C73.7 51.8998 74.2 52.6998 74.3 52.9998C75.2 55.2998 76.5 56.7998 77.4 57.9998C77.7 58.2998 77.9 58.6998 78.1 58.9998C76.5 59.4998 73.7 60.4998 73.9 65.7998C73.7 68.3998 72.2 80.7998 71.5 85.1998C70.6 90.8998 68.5 92.9998 62.5 94.2998ZM88.3 64.6998C86.7 65.4998 84 65.9998 81.4 66.0998C78.6 66.1998 77.1 65.7998 76.8 65.4998C76.6 62.1998 77.9 61.8998 79.1 61.4998C79.3 61.3998 79.5 61.3998 79.7 61.2998C79.8 61.3998 79.9 61.4998 80.1 61.5998C82.4 63.0998 86.4 63.2998 92.2 62.0998H92.3C91.5 62.7998 90.2 63.7998 88.3 64.6998Z" fill="#C5C5C5"/>
</g>
<defs>
<clipPath id="clip0_230_3901">
<rect width="100" height="100" fill="white"/>
</clipPath>
</defs>
</svg>
