<svg width="100" height="100" viewBox="0 0 100 100" fill="none" xmlns="http://www.w3.org/2000/svg">
<g id="prisma" clip-path="url(#clip0_230_3928)">
<path id="Vector" fill-rule="evenodd" clip-rule="evenodd" d="M9.7998 68.6001C8.7998 67.0001 8.7998 65.0001 9.7998 63.3001L47.1998 2.30007C49.2998 -1.09993 54.2998 -0.799934 55.9998 2.80007L90.0998 77.0001C91.3998 79.7001 89.8998 83.0001 86.9998 83.9001L33.7998 99.8001C31.6998 100.4 29.3998 99.6001 28.1998 97.7001L9.7998 68.6001ZM51.3998 20.2001C51.7998 18.4001 54.1998 18.1001 54.8998 19.8001L78.4998 74.3001C78.8998 75.3001 78.3998 76.5001 77.2998 76.8001L40.5998 87.8001C39.2998 88.2001 37.9998 87.0001 38.1998 85.6001L51.3998 20.2001Z" fill="#757575"/>
</g>
<defs>
<clipPath id="clip0_230_3928">
<rect width="100" height="100" fill="white"/>
</clipPath>
</defs>
</svg>
