<svg width="100" height="100" viewBox="0 0 100 100" fill="none" xmlns="http://www.w3.org/2000/svg">
<g id="redux" clip-path="url(#clip0_230_3930)">
<path id="Vector" d="M69.2999 69.3C72.9999 68.9 75.7999 65.7 75.6999 61.9C75.5999 58.1 72.3999 55 68.5999 55H68.2999C64.3999 55.1 61.2999 58.4 61.3999 62.4C61.4999 64.3 62.2999 66 63.3999 67.1C59.0999 75.6 52.4999 81.9 42.4999 87.1C35.7999 90.7 28.7999 91.9 21.7999 91C16.0999 90.2 11.5999 87.7 8.79993 83.5C4.69993 77.3 4.29993 70.5 7.79993 63.8C10.1999 59 13.9999 55.4 16.4999 53.6C15.9999 51.9 15.1999 49.1 14.7999 47.1C-3.60007 60.5 -1.70007 78.6 3.89993 87.1C8.09993 93.5 16.5999 97.4 25.9999 97.4C28.4999 97.4 31.0999 97.1 33.5999 96.5C49.8999 93.4 62.2999 83.7 69.2999 69.3ZM91.6999 53.5C81.9999 42.2 67.7999 36 51.4999 36H49.4999C48.3999 33.7 45.8999 32.2 43.2999 32.2H42.9999C39.0999 32.3 35.9999 35.6 36.0999 39.6C36.1999 43.4 39.3999 46.5 43.1999 46.5H43.4999C46.2999 46.4 48.6999 44.6 49.6999 42.2H51.9999C61.6999 42.2 70.7999 45 79.0999 50.5C85.4999 54.5 89.9999 60 92.5999 66.6C94.7999 71.9 94.5999 77.2 92.2999 81.6C88.6999 88.3 82.7999 92 74.8999 92C69.7999 92 64.9999 90.5 62.3999 89.3C60.9999 90.6 58.4999 92.6 56.6999 93.9C62.1999 96.4 67.7999 97.8 73.0999 97.8C85.2999 97.8 94.3999 91.1 97.7999 84.3C101.5 77.1 101.2 64.3 91.6999 53.5ZM26.9999 71.5C27.0999 75.3 30.2999 78.4 34.0999 78.4H34.3999C38.2999 78.3 41.3999 75 41.2999 71C41.1999 67.2 37.9999 64.1 34.1999 64.1H33.8999C33.5999 64.1 33.2999 64.1 32.9999 64.2C27.7999 55.5 25.5999 46.1 26.3999 35.9C26.8999 28.3 29.4999 21.6 33.8999 16.2C37.5999 11.5 44.6999 9.2 49.5999 9.1C63.0999 8.8 68.7999 25.6 69.1999 32.4C70.8999 32.8 73.6999 33.7 75.5999 34.3C73.9999 13.7 61.2999 3 49.0999 3C37.5999 3 27.0999 11.3 22.8999 23.5C16.9999 39.8 20.8999 55.4 27.9999 67.8C27.2999 68.7 26.8999 70.1 26.9999 71.5Z" fill="#757575"/>
</g>
<defs>
<clipPath id="clip0_230_3930">
<rect width="100" height="100" fill="white"/>
</clipPath>
</defs>
</svg>
