<svg width="100" height="100" viewBox="0 0 100 100" fill="none" xmlns="http://www.w3.org/2000/svg">
<g id="slack" clip-path="url(#clip0_230_3932)">
<path id="Vector" fill-rule="evenodd" clip-rule="evenodd" d="M36.6 0C31.1 0 26.6 4.5 26.6 10C26.6 15.5 31.1 20 36.6 20H46.6V10C46.6 4.5 42.1 0 36.6 0ZM36.6 26.7H10C4.5 26.7 0 31.2 0 36.7C0 42.2 4.5 46.7 10 46.7H36.6C42.1 46.7 46.6 42.2 46.6 36.7C46.6 31.1 42.1 26.7 36.6 26.7Z" fill="#9F9F9F"/>
<path id="Vector_2" fill-rule="evenodd" clip-rule="evenodd" d="M99.8 36.7C99.8 31.2 95.3 26.7 89.8 26.7C84.3 26.7 79.8 31.2 79.8 36.7V46.7H89.8C95.3 46.7 99.8 42.2 99.8 36.7ZM73.1999 36.7V10C73.1999 4.5 68.7 0 63.2 0C57.7 0 53.2 4.5 53.2 10V36.7C53.2 42.2 57.7 46.7 63.2 46.7C68.7 46.7 73.1999 42.2 73.1999 36.7Z" fill="#878787"/>
<path id="Vector_3" fill-rule="evenodd" clip-rule="evenodd" d="M63.2 99.9998C68.7 99.9998 73.1999 95.4998 73.1999 89.9998C73.1999 84.4998 68.7 79.9998 63.2 79.9998H53.2V89.9998C53.2 95.4998 57.7 99.9998 63.2 99.9998ZM63.2 73.2998H89.8C95.3 73.2998 99.8 68.7998 99.8 63.2998C99.8 57.7998 95.3 53.2998 89.8 53.2998H63.2C57.7 53.2998 53.2 57.7998 53.2 63.2998C53.2 68.7998 57.7 73.2998 63.2 73.2998Z" fill="#B5B5B5"/>
<path id="Vector_4" fill-rule="evenodd" clip-rule="evenodd" d="M0 63.2998C0 68.7998 4.5 73.2998 10 73.2998C15.5 73.2998 20 68.7998 20 63.2998V53.2998H10C4.5 53.2998 0 57.7998 0 63.2998ZM26.6 63.2998V89.9998C26.6 95.4998 31.1 99.9998 36.6 99.9998C42.1 99.9998 46.6 95.4998 46.6 89.9998V63.2998C46.6 57.7998 42.1 53.2998 36.6 53.2998C31.1 53.2998 26.6 57.7998 26.6 63.2998Z" fill="#5F5F5F"/>
</g>
<defs>
<clipPath id="clip0_230_3932">
<rect width="100" height="100" fill="white"/>
</clipPath>
</defs>
</svg>
