<svg width="100" height="100" viewBox="0 0 100 100" fill="none" xmlns="http://www.w3.org/2000/svg">
<g id="tRPC" clip-path="url(#clip0_230_3937)">
<path id="Vector" d="M70.7 0H29.3C13.1 0 0 13.1 0 29.3V70.7C0 86.9 13.1 100 29.3 100H70.7C86.9 100 100 86.9 100 70.7V29.3C100 13.1 86.9 0 70.7 0Z" fill="#7A7A7A"/>
<path id="Vector_2" fill-rule="evenodd" clip-rule="evenodd" d="M49.9002 14.6001L63.8002 22.6001V27.0001L80.6002 36.7001V53.3001L85.1002 55.9001V71.9001L71.2002 79.9001L65.0002 76.3001L50.0002 84.9001L35.1002 76.3001L29.1002 80.0001L15.2002 72.0001V56.0001L19.5002 53.5001V36.8001L36.0002 27.3001V22.7001L49.9002 14.6001ZM63.8002 31.2001V38.6001L49.9002 46.6001L36.0002 38.6001V31.4001L23.2002 38.8001V51.3001L29.1002 47.9001L43.0002 56.0001V72.0001L38.8002 74.4001L50.1002 80.9001L61.5002 74.3001L57.3002 72.0001V56.0001L71.2002 48.0001L77.0002 51.3001V38.8001L63.8002 31.2001ZM60.9002 69.9001V60.1001L69.4002 65.0001V74.8001L60.9002 69.9001ZM81.5002 60.1001L73.0002 65.0001V74.8001L81.5002 69.9001V60.1001ZM18.9002 69.9001V60.1001L27.4002 65.0001V74.8001L18.9002 69.9001ZM39.4002 60.1001L30.9002 65.0001V74.8001L39.4002 69.9001V60.1001ZM62.7002 57.0001L71.2002 52.1001L79.7002 57.0001L71.2002 61.9001L62.7002 57.0001ZM29.1002 52.1001L20.7002 57.0001L29.2002 61.9001L37.7002 57.0001L29.1002 52.1001ZM39.6002 36.6001V26.8001L48.1002 31.7001V41.5001L39.6002 36.6001ZM60.2002 26.8001L51.7002 31.7001V41.5001L60.2002 36.6001V26.8001ZM41.4002 23.7001L49.9002 18.8001L58.4002 23.7001L49.9002 28.6001L41.4002 23.7001Z" fill="white"/>
</g>
<defs>
<clipPath id="clip0_230_3937">
<rect width="100" height="100" fill="white"/>
</clipPath>
</defs>
</svg>
