<svg width="100" height="100" viewBox="0 0 100 100" fill="none" xmlns="http://www.w3.org/2000/svg">
<g id="typescript" clip-path="url(#clip0_230_3942)">
<path id="Vector" d="M0 0H100V100H0V0Z" fill="#757575"/>
<path id="Vector_2" d="M47.9999 37.0001H52.7999V45.3001H39.7999V82.1001L39.4999 82.2001C38.9999 82.3001 32.8999 82.3001 31.4999 82.2001L30.3999 82.1001V45.3001H17.3999V37.0001H21.4999C23.6999 37.0001 29.4999 37.0001 34.2999 37.0001C39.2999 37.0001 45.3999 37.0001 47.9999 37.0001ZM84.5999 78.3001C82.6999 80.3001 80.5999 81.4001 77.1999 82.4001C75.6999 82.8001 75.4999 82.8001 72.0999 82.8001C68.7999 82.8001 68.4999 82.8001 66.8999 82.4001C62.6999 81.3001 59.2999 79.2001 56.9999 76.2001C56.2999 75.4001 55.2999 73.6001 55.2999 73.4001C55.2999 73.3001 55.4999 73.2001 55.6999 73.1001C55.8999 73.0001 56.2999 72.7001 56.6999 72.5001C56.9999 72.3001 57.6999 71.9001 58.0999 71.7001C58.4999 71.5001 59.6999 70.8001 60.7999 70.1001C61.8999 69.5001 62.7999 68.9001 62.8999 68.9001C62.9999 68.9001 63.1999 69.1001 63.3999 69.4001C64.2999 71.0001 66.4999 73.0001 68.0999 73.7001C69.0999 74.1001 71.1999 74.6001 72.1999 74.6001C73.0999 74.6001 74.8999 74.2001 75.7999 73.8001C76.7999 73.3001 77.2999 72.9001 77.8999 72.0001C78.2999 71.4001 78.3999 71.2001 78.2999 70.0001C78.2999 68.9001 78.1999 68.6001 77.8999 68.0001C76.9999 66.6001 75.7999 65.8001 70.9999 63.7001C65.9999 61.5001 63.7999 60.2001 61.9999 58.4001C60.6999 57.1001 60.3999 56.7001 59.4999 55.1001C58.3999 53.0001 58.2999 52.3001 58.2999 49.2001C58.2999 47.0001 58.2999 46.3001 58.5999 45.5001C58.8999 44.4001 59.9999 42.2001 60.4999 41.7001C61.4999 40.5001 61.8999 40.2001 62.5999 39.6001C64.6999 37.8001 67.9999 36.7001 71.1999 36.6001C71.5999 36.6001 72.6999 36.7001 73.8999 36.7001C77.0999 37.0001 79.2999 37.7001 81.3999 39.4001C82.9999 40.6001 85.3999 43.6001 85.0999 44.0001C84.8999 44.2001 78.6999 48.4001 78.2999 48.5001C78.0999 48.6001 77.8999 48.5001 77.4999 48.1001C75.3999 45.6001 74.4999 45.0001 72.4999 44.9001C70.9999 44.8001 70.2999 45.0001 69.2999 45.6001C68.2999 46.3001 67.7999 47.3001 67.7999 48.8001C67.7999 50.9001 68.5999 51.9001 71.5999 53.4001C73.4999 54.4001 75.1999 55.1001 75.2999 55.1001C75.4999 55.1001 79.4999 57.1001 80.4999 57.7001C85.3999 60.6001 87.3999 63.5001 87.8999 68.6001C87.9999 72.3001 86.9999 75.8001 84.5999 78.3001Z" fill="#C5C5C5"/>
</g>
<defs>
<clipPath id="clip0_230_3942">
<rect width="100" height="100" fill="white"/>
</clipPath>
</defs>
</svg>
