<svg width="100" height="100" viewBox="0 0 100 100" fill="none" xmlns="http://www.w3.org/2000/svg">
<g id="vitest" clip-path="url(#clip0_230_3945)">
<path id="Vector" d="M74.9998 31.6999L51.0998 66.1999C50.7998 66.5999 50.4998 66.7999 50.0998 66.9999C49.6998 67.1999 49.1998 67.0999 48.7998 66.9999C48.3998 66.8999 47.9998 66.5999 47.7998 66.1999C47.4998 65.7999 47.3998 65.3999 47.3998 64.8999L48.3998 45.7999L32.9998 42.4999C32.6998 42.3999 32.3998 42.2999 32.0998 42.0999C31.7998 41.8999 31.5998 41.5999 31.4998 41.2999C31.3998 40.9999 31.2998 40.5999 31.3998 40.2999C31.3998 39.9999 31.5998 39.5999 31.6998 39.3999L55.5998 4.8999C55.8998 4.4999 56.1998 4.2999 56.5998 4.0999C56.9998 3.9999 57.4998 3.9999 57.8998 4.0999C58.2998 4.1999 58.6998 4.4999 58.8998 4.8999C59.1998 5.2999 59.2998 5.6999 59.2998 6.1999L58.2998 25.2999L73.6998 28.5999C73.9998 28.6999 74.2998 28.7999 74.5998 28.9999C74.8998 29.1999 75.0998 29.4999 75.1998 29.7999C75.2998 30.0999 75.3998 30.4999 75.2998 30.7999C75.3998 31.0999 75.1998 31.3999 74.9998 31.6999Z" fill="#C6C6C6"/>
<path id="Vector_2" d="M50.0001 95.1998C49.4001 95.1998 48.7001 95.0998 48.1001 94.7998C47.5001 94.5998 47.0001 94.1998 46.5001 93.6998L24.0001 71.1998C23.1001 70.2998 22.6001 69.0998 22.6001 67.7998C22.6001 66.4998 23.1001 65.2998 24.0001 64.3998C24.9001 63.4998 26.1001 62.9998 27.4001 62.9998C28.7001 62.9998 29.9001 63.4998 30.8001 64.3998L50.0001 83.4998L91.8001 41.6998C92.7001 40.7998 93.9001 40.2998 95.2001 40.2998C96.5001 40.2998 97.7001 40.7998 98.6001 41.6998C99.5001 42.5998 100 43.7998 100 45.0998C100 46.3998 99.5001 47.5998 98.6001 48.4998L53.4001 93.7998C53.0001 94.2998 52.4001 94.5998 51.8001 94.8998C51.3001 95.0998 50.6001 95.1998 50.0001 95.1998Z" fill="#818181"/>
<path id="Vector_3" d="M50 95.1999C50.6 95.1999 51.3 95.0999 51.9 94.7999C52.5 94.5999 53 94.1999 53.5 93.6999L76 71.1999C76.9 70.2999 77.4 69.0999 77.4 67.7999C77.4 66.4999 76.9 65.2999 76 64.3999C75.1 63.4999 73.9 62.9999 72.6 62.9999C71.3 62.9999 70.1 63.4999 69.2 64.3999L50 83.4999L8.2 41.7999C7.3 40.8999 6.1 40.3999 4.8 40.3999C3.5 40.3999 2.3 40.8999 1.4 41.7999C0.5 42.6999 0 43.8999 0 45.1999C0 46.4999 0.5 47.6999 1.4 48.5999L46.6 93.7999C47 94.2999 47.6 94.5999 48.2 94.8999C48.7 95.0999 49.4 95.1999 50 95.1999Z" fill="#818181" fill-opacity="0.5"/>
</g>
<defs>
<clipPath id="clip0_230_3945">
<rect width="100" height="100" fill="white"/>
</clipPath>
</defs>
</svg>
