<svg width="100" height="100" viewBox="0 0 100 100" fill="none" xmlns="http://www.w3.org/2000/svg">
<g id="vscode">
<path id="Vector" d="M1.00002 35.4999C1.00002 35.4999 -1.39998 33.6999 1.50002 31.3999L8.30002 25.2999C8.30002 25.2999 10.2 23.2999 12.3 24.9999L75.1 72.5999V95.3999C75.1 95.3999 75.1 98.9999 70.5 98.5999L1.00002 35.4999Z" fill="#727272"/>
<path id="Vector_2" d="M17.1002 50.2002L1.00018 64.9002C1.00018 64.9002 -0.699816 66.1002 1.00018 68.4002L8.50018 75.2002C8.50018 75.2002 10.3002 77.1002 12.9002 74.9002L30.1002 61.9002L17.1002 50.2002Z" fill="#5B5B5B"/>
<path id="Vector_3" d="M45.6001 50.3L75.3001 27.6L75.1001 4.99999C75.1001 4.99999 73.8001 -6.07967e-06 69.6001 2.59999L30.1001 38.6L45.6001 50.3Z" fill="#5D5D5D"/>
<path id="Vector_4" d="M70.5001 98.6999C72.2001 100.5 74.3001 99.8999 74.3001 99.8999L97.4001 88.4999C100.4 86.4999 99.9001 83.9999 99.9001 83.9999V15.7999C99.9001 12.7999 96.8001 11.7999 96.8001 11.7999L76.9001 2.09989C72.5001 -0.600106 69.6001 2.59989 69.6001 2.59989C69.6001 2.59989 73.3001 -0.100106 75.1001 4.99989V94.9999C75.1001 95.5999 75.0001 96.1999 74.7001 96.7999C74.2001 97.8999 73.0001 98.8999 70.3001 98.3999L70.5001 98.6999Z" fill="#848484"/>
</g>
</svg>
