<svg width="60" height="60" viewBox="0 0 60 60" fill="none" xmlns="http://www.w3.org/2000/svg">
<circle cx="30" cy="30" r="30" fill="url(#paint0_linear_244_290)"/>
<circle cx="30" cy="30" r="29.5" stroke="#B3B3B3" stroke-opacity="0.3"/>
<path d="M38.327 40.4C37.9804 39.9467 37.687 39.4533 37.447 38.92C37.207 38.36 36.9537 37.6933 36.687 36.92C36.6337 36.7867 36.4737 36.3867 36.207 35.72C35.967 35.0533 35.687 34.48 35.367 34C33.687 34.24 32.3137 34.36 31.247 34.36C30.6604 34.36 30.007 34.3467 29.287 34.32C28.5937 34.2667 28.0737 34.24 27.727 34.24C26.3937 34.1333 25.327 34.08 24.527 34.08C24.207 34.5067 23.927 34.96 23.687 35.44C23.4737 35.92 23.1937 36.64 22.847 37.6C22.367 38.9867 21.9537 39.9733 21.607 40.56C21.367 40.96 20.9004 41.16 20.207 41.16C19.6204 41.16 19.0737 41.04 18.567 40.8C18.087 40.5333 17.847 40.1733 17.847 39.72C18.0604 38.7067 18.3937 37.64 18.847 36.52C19.327 35.3733 20.007 33.8533 20.887 31.96L22.487 28.04C23.367 25.8 24.167 23.88 24.887 22.28C25.6337 20.68 26.607 18.7867 27.807 16.6C27.967 16.28 28.2337 16.0133 28.607 15.8C28.9804 15.56 29.3937 15.44 29.847 15.44C30.3537 15.44 30.7137 15.48 30.927 15.56C31.167 15.6133 31.3537 15.72 31.487 15.88C31.6204 16.0133 31.8204 16.3067 32.087 16.76C32.9937 18.1733 33.767 19.6267 34.407 21.12C35.0737 22.6133 35.9137 24.68 36.927 27.32L37.767 29.44C38.5137 31.36 39.1537 32.9733 39.687 34.28C40.247 35.56 40.8604 36.7333 41.527 37.8C41.9537 38.4933 42.167 38.9733 42.167 39.24C42.167 39.88 41.967 40.3733 41.567 40.72C41.1937 41.04 40.7004 41.2 40.087 41.2C39.3137 41.2 38.727 40.9333 38.327 40.4ZM34.207 30.72C33.7804 29.8133 33.167 28.24 32.367 26C31.5404 23.6 30.7137 21.6933 29.887 20.28C29.3804 21.56 28.6337 23.2133 27.647 25.24C26.9804 26.4933 26.2204 28.3067 25.367 30.68C27.0737 30.8933 28.9137 31 30.887 31C32.3004 31 33.407 30.9067 34.207 30.72Z" fill="url(#paint1_linear_244_290)"/>
<defs>
<linearGradient id="paint0_linear_244_290" x1="0" y1="0" x2="66.3681" y2="51.8486" gradientUnits="userSpaceOnUse">
<stop stop-color="#2A2A2A"/>
<stop offset="1" stop-color="#161614"/>
</linearGradient>
<linearGradient id="paint1_linear_244_290" x1="28.2656" y1="3" x2="28.2656" y2="51" gradientUnits="userSpaceOnUse">
<stop stop-color="#615FFF"/>
<stop offset="1" stop-color="#00A6F4"/>
</linearGradient>
</defs>
</svg>
