<svg width="24" height="24" viewBox="0 0 24 24" fill="none" xmlns="http://www.w3.org/2000/svg">
<path d="M22.7999 17.3998V6.5998C22.7999 5.6038 21.9959 4.7998 20.9999 4.7998H4.18794C3.19194 4.7998 2.38794 5.6038 2.38794 6.5998V17.3998C2.38794 18.3958 3.19194 19.1998 4.18794 19.1998H20.9999C21.9959 19.1998 22.7999 18.3958 22.7999 17.3998ZM21.2279 6.4678C21.6239 6.8638 21.4079 7.2718 21.1919 7.4758L16.3199 11.9398L20.9999 16.8118C21.1439 16.9798 21.2399 17.2438 21.0719 17.4238C20.9159 17.6158 20.5559 17.6038 20.3999 17.4838L15.1559 13.0078L12.5879 15.3478L10.0319 13.0078L4.78794 17.4838C4.63194 17.6038 4.27194 17.6158 4.11594 17.4238C3.94794 17.2438 4.04394 16.9798 4.18794 16.8118L8.86794 11.9398L3.99594 7.4758C3.77994 7.2718 3.56394 6.8638 3.95994 6.4678C4.35594 6.0718 4.76394 6.2638 5.09994 6.5518L12.5879 12.5998L20.0879 6.5518C20.4239 6.2638 20.8319 6.0718 21.2279 6.4678Z" fill="#007AFF"/>
</svg>
