<svg width="24" height="24" viewBox="0 0 24 24" fill="none" xmlns="http://www.w3.org/2000/svg">
<path opacity="0.2" fill-rule="evenodd" clip-rule="evenodd" d="M18.828 11.4405C19.3533 11.6266 19.8281 11.9321 20.2152 12.333C20.6023 12.7338 20.8911 13.2191 21.0588 13.7505L22.62 18.6105C23.2344 20.5233 22.224 22.5849 20.3652 23.2161C20.0068 23.3374 19.6311 23.3994 19.2528 23.3997H9.5448C7.5888 23.3997 6 21.7677 6 19.7541C6 19.3665 6.06 18.9801 6.18 18.6117L7.74 13.7517C7.90765 13.2199 8.19652 12.7344 8.58385 12.3333C8.97119 11.9322 9.44639 11.6266 9.972 11.4405C9.7392 10.6809 9.6 9.95611 9.6 9.34291C9.6 6.50251 11.748 4.19971 14.4 4.19971C17.052 4.19971 19.2 6.50251 19.2 9.34291C19.2 9.95611 19.062 10.6809 18.828 11.4405Z" fill="#007AFF"/>
<path fill-rule="evenodd" clip-rule="evenodd" d="M12.0001 10.1999C12.6366 10.1999 13.2471 9.94705 13.6972 9.49696C14.1472 9.04687 14.4001 8.43642 14.4001 7.7999C14.4001 7.16338 14.1472 6.55293 13.6972 6.10285C13.2471 5.65276 12.6366 5.3999 12.0001 5.3999C11.3636 5.3999 10.7531 5.65276 10.303 6.10285C9.85295 6.55293 9.6001 7.16338 9.6001 7.7999C9.6001 8.43642 9.85295 9.04687 10.303 9.49696C10.7531 9.94705 11.3636 10.1999 12.0001 10.1999ZM12.0001 6.5999C12.3184 6.5999 12.6236 6.72633 12.8486 6.95137C13.0737 7.17642 13.2001 7.48164 13.2001 7.7999C13.2001 8.11816 13.0737 8.42339 12.8486 8.64843C12.6236 8.87347 12.3184 8.9999 12.0001 8.9999C11.6818 8.9999 11.3766 8.87347 11.1516 8.64843C10.9265 8.42339 10.8001 8.11816 10.8001 7.7999C10.8001 7.48164 10.9265 7.17642 11.1516 6.95137C11.3766 6.72633 11.6818 6.5999 12.0001 6.5999Z" fill="#007AFF"/>
<path fill-rule="evenodd" clip-rule="evenodd" d="M6.6001 7.543C6.6001 10.7506 9.7837 16.1998 12.0001 16.1998C14.2177 16.1998 17.4001 10.7506 17.4001 7.543C17.4001 4.3798 14.9917 1.7998 12.0001 1.7998C9.0085 1.7998 6.6001 4.3798 6.6001 7.543ZM16.2001 7.543C16.2001 10.1746 13.3825 14.9998 12.0001 14.9998C10.6189 14.9998 7.8001 10.1758 7.8001 7.543C7.8001 5.0242 9.6901 2.9998 12.0001 2.9998C14.3101 2.9998 16.2001 5.0242 16.2001 7.543Z" fill="#007AFF"/>
<path d="M16.122 10.9677C15.9786 10.906 15.8648 10.7907 15.805 10.6465C15.7451 10.5022 15.7439 10.3403 15.8016 10.1951C15.8592 10.0499 15.9712 9.93298 16.1137 9.86909C16.2563 9.80519 16.4181 9.7994 16.5648 9.85293C17.0528 10.0465 17.4925 10.3444 17.8532 10.7258C18.2139 11.1072 18.4868 11.5629 18.6528 12.0609L20.2536 16.8609C20.4342 17.4023 20.4834 17.9788 20.3973 18.543C20.3112 19.1071 20.0922 19.6427 19.7584 20.1055C19.4246 20.5684 18.9855 20.9452 18.4774 21.205C17.9693 21.4648 17.4067 21.6001 16.836 21.5997H7.16403C6.59357 21.5997 6.03126 21.4642 5.52347 21.2042C5.01568 20.9443 4.57693 20.5674 4.2434 20.1046C3.90986 19.6418 3.69108 19.1063 3.6051 18.5424C3.51911 17.9784 3.56837 17.4021 3.74883 16.8609L5.34843 12.0609C5.51734 11.554 5.79697 11.091 6.16705 10.7056C6.53713 10.3201 6.98837 10.0219 7.48803 9.83253C7.5617 9.80456 7.64016 9.79137 7.71893 9.79372C7.7977 9.79607 7.87523 9.81392 7.9471 9.84623C8.01898 9.87855 8.08378 9.9247 8.13782 9.98206C8.19185 10.0394 8.23406 10.1069 8.26203 10.1805C8.29 10.2542 8.30319 10.3327 8.30084 10.4114C8.29849 10.4902 8.28065 10.5677 8.24833 10.6396C8.21602 10.7115 8.16986 10.7763 8.1125 10.8303C8.05514 10.8844 7.9877 10.9266 7.91403 10.9545C7.5805 11.0807 7.27928 11.2796 7.03226 11.5368C6.78525 11.794 6.59865 12.103 6.48603 12.4413L4.88643 17.2413C4.76626 17.6021 4.73355 17.9863 4.79099 18.3622C4.84843 18.7382 4.99438 19.0951 5.21681 19.4035C5.43924 19.712 5.73179 19.9631 6.07033 20.1363C6.40888 20.3095 6.78375 20.3998 7.16403 20.3997H16.8384C17.2188 20.3997 17.5936 20.3093 17.9321 20.1359C18.2707 19.9626 18.5631 19.7112 18.7855 19.4027C19.0078 19.0941 19.1536 18.7371 19.2108 18.3611C19.2681 17.9851 19.2352 17.6009 19.1148 17.2401L17.5164 12.4401C17.4057 12.1083 17.2237 11.8046 16.9832 11.5505C16.7428 11.2964 16.4497 11.0979 16.1244 10.9689" fill="#007AFF"/>
</svg>
