<svg width="24" height="24" viewBox="0 0 24 24" fill="none" xmlns="http://www.w3.org/2000/svg">
<path opacity="0.5" d="M15.5561 14.548L15.1011 15.028C15.1011 15.028 14.0181 16.167 11.0631 13.056C8.1081 9.94505 9.1911 8.80605 9.1911 8.80605L9.4781 8.50305C10.1841 7.75905 10.2511 6.56505 9.6341 5.69305L8.3741 3.91005C7.6101 2.83005 6.1351 2.68805 5.2601 3.60905L3.6911 5.26005C3.2581 5.71705 2.9681 6.30805 3.0031 6.96505C3.0931 8.64505 3.8111 12.258 7.8151 16.475C12.0621 20.945 16.0471 21.123 17.6761 20.962C18.1921 20.912 18.6401 20.633 19.0011 20.253L20.4211 18.757C21.3811 17.747 21.1111 16.017 19.8831 15.311L17.9731 14.211C17.1671 13.748 16.1861 13.884 15.5561 14.547" fill="#007AFF"/>
<path d="M13.2599 1.87978C13.2757 1.78252 13.3105 1.68933 13.3624 1.60552C13.4142 1.52172 13.482 1.44895 13.562 1.39138C13.6419 1.3338 13.7324 1.29254 13.8284 1.26996C13.9243 1.24738 14.0237 1.24392 14.1209 1.25978C14.1459 1.26478 14.2279 1.27978 14.2709 1.28978C14.3569 1.30778 14.4743 1.33778 14.6229 1.37978C14.9199 1.46678 15.3349 1.60978 15.8329 1.83778C16.8289 2.29478 18.1539 3.09378 19.5299 4.46878C20.9059 5.84478 21.7049 7.17078 22.1619 8.16678C22.3899 8.66478 22.5319 9.07878 22.6189 9.37678C22.6625 9.52658 22.7002 9.67803 22.7319 9.83078L22.7369 9.86178C22.7699 10.0598 22.7236 10.2629 22.6082 10.4271C22.4928 10.5914 22.3174 10.7037 22.1199 10.7398C21.9241 10.7716 21.7237 10.7245 21.5625 10.6089C21.4013 10.4932 21.2925 10.3184 21.2599 10.1228C21.2391 10.0123 21.212 9.90317 21.1789 9.79578C21.0767 9.45235 20.9497 9.1168 20.7989 8.79178C20.4089 7.94178 19.7069 6.76778 18.4689 5.52978C17.2309 4.29178 16.0579 3.59078 15.2069 3.20078C14.8822 3.05001 14.547 2.92301 14.2039 2.82078C14.0987 2.79122 13.9926 2.76454 13.8859 2.74078C13.6896 2.70783 13.5141 2.59918 13.397 2.43818C13.28 2.27718 13.2307 2.07668 13.2599 1.87978Z" fill="#007AFF"/>
<path fill-rule="evenodd" clip-rule="evenodd" d="M13.4861 5.3299C13.5131 5.23513 13.5584 5.14661 13.6196 5.06939C13.6808 4.99217 13.7566 4.92776 13.8427 4.87984C13.9288 4.83192 14.0235 4.80143 14.1213 4.79012C14.2192 4.7788 14.3183 4.78688 14.4131 4.8139L14.4161 4.8149L14.4191 4.8159L14.4271 4.8179L14.4471 4.8239L14.5031 4.8439C14.5478 4.85923 14.6068 4.88256 14.6801 4.9139C14.8261 4.9759 15.0251 5.0719 15.2701 5.2169C15.7591 5.5069 16.4271 5.9869 17.2121 6.7729C17.9971 7.5579 18.4781 8.2259 18.7681 8.7149C18.9131 8.9599 19.0091 9.1589 19.0711 9.3049C19.1043 9.38128 19.1343 9.45901 19.1611 9.5379L19.1661 9.5579L19.1691 9.5659V9.5689L19.1701 9.5699C19.1701 9.5699 19.1701 9.5719 18.4501 9.7779L19.1701 9.5719C19.2209 9.76112 19.1956 9.9627 19.0997 10.1335C19.0038 10.3044 18.8448 10.4309 18.6568 10.486C18.4688 10.5411 18.2667 10.5205 18.0937 10.4285C17.9207 10.3366 17.7905 10.1806 17.7311 9.9939L17.7281 9.9839L17.6931 9.8959C17.6293 9.75279 17.5572 9.61355 17.4771 9.4789C17.2541 9.1029 16.8511 8.5329 16.1511 7.8329C15.4511 7.1329 14.8821 6.7309 14.5051 6.5079C14.3432 6.41284 14.1748 6.3293 14.0011 6.2579L13.9911 6.2539C13.8022 6.1971 13.6433 6.06818 13.5487 5.89504C13.4542 5.72191 13.4317 5.51951 13.4861 5.3299Z" fill="#007AFF"/>
</svg>
