<svg width="24" height="24" viewBox="0 0 24 24" fill="none" xmlns="http://www.w3.org/2000/svg">
<path opacity="0.5" d="M17.688 21.7438C17.238 21.7438 16.8008 21.5936 16.446 21.3168L12.416 18.1948L9.71396 21.1778C9.59503 21.3089 9.44343 21.4061 9.27465 21.4595C9.10587 21.5128 8.92596 21.5204 8.75329 21.4814C8.58062 21.4425 8.42138 21.3584 8.29184 21.2378C8.1623 21.1172 8.0671 20.9643 8.01596 20.7948L5.99596 14.1128L2.36996 12.8528C1.97843 12.7166 1.63766 12.4643 1.39295 12.1297C1.14825 11.795 1.01119 11.3938 1.00001 10.9794C0.988831 10.565 1.10405 10.157 1.33037 9.80964C1.55668 9.46229 1.88335 9.19205 2.26696 9.03485L20.187 1.79985C20.5289 1.6608 20.9021 1.61703 21.2669 1.67319C21.6317 1.72934 21.9744 1.88333 22.2587 2.11876C22.543 2.35419 22.7581 2.66228 22.8812 3.01024C23.0044 3.3582 23.0309 3.73302 22.958 4.09485L19.695 20.1098C19.5984 20.5711 19.3461 20.9851 18.9805 21.2824C18.6149 21.5797 18.1582 21.7423 17.687 21.7428L17.688 21.7438Z" fill="#007AFF"/>
<path d="M8.97292 21.5059C8.75834 21.5059 8.54945 21.4368 8.37712 21.309C8.20479 21.1811 8.07815 21.0012 8.01592 20.7959L5.84792 13.6359C5.78054 13.4129 5.79312 13.1734 5.8835 12.9587C5.97387 12.744 6.13636 12.5675 6.34292 12.4599L16.9099 6.95786C17.1218 6.84691 17.3665 6.81557 17.5995 6.86954C17.8325 6.92351 18.0384 7.05922 18.18 7.25204C18.3215 7.44486 18.3892 7.68202 18.3709 7.9205C18.3525 8.15897 18.2493 8.38298 18.0799 8.55186L10.9959 15.6349L9.95192 20.7069C9.90725 20.9247 9.79127 21.1214 9.6223 21.2659C9.45333 21.4104 9.24102 21.4945 9.01892 21.5049L8.97292 21.5059Z" fill="#007AFF"/>
</svg>
